<svg width="179" height="41" viewBox="0 0 179 41" fill="none" xmlns="http://www.w3.org/2000/svg">
<g clip-path="url(#clip0_24_2633)">
<path fill-rule="evenodd" clip-rule="evenodd" d="M13.7146 0.516113C11.4582 0.516113 9.2943 1.41245 7.69881 3.00794L0 10.7067V14.2307C0 16.7204 1.06944 18.9603 2.77401 20.5161C1.06944 22.0719 0 24.3118 0 26.8015V30.3255L7.69881 38.0243C9.2943 39.6198 11.4582 40.5161 13.7146 40.5161C16.2043 40.5161 18.4442 39.4467 20 37.7421C21.5558 39.4467 23.7957 40.5161 26.2854 40.5161C28.5418 40.5161 30.7057 39.6198 32.3012 38.0243L40 30.3255V26.8015C40 24.3118 38.9306 22.0719 37.226 20.5161C38.9306 18.9603 40 16.7204 40 14.2307V10.7067L32.3012 3.00794C30.7057 1.41245 28.5418 0.516113 26.2854 0.516113C23.7957 0.516113 21.5558 1.58555 20 3.29012C18.4442 1.58555 16.2043 0.516113 13.7146 0.516113ZM25.7588 20.5161C25.6629 20.4286 25.5688 20.3387 25.4766 20.2465L20 14.7699L14.5234 20.2465C14.4312 20.3387 14.3371 20.4286 14.2412 20.5161C14.3371 20.6036 14.4312 20.6935 14.5234 20.7857L20 26.2623L25.4766 20.7857C25.5688 20.6935 25.6629 20.6036 25.7588 20.5161ZM22.2222 30.3255V32.0085C22.2222 34.2525 24.0414 36.0717 26.2854 36.0717C27.363 36.0717 28.3965 35.6436 29.1585 34.8816L35.5556 28.4845V26.8015C35.5556 24.5575 33.7364 22.7383 31.4924 22.7383C30.4148 22.7383 29.3813 23.1664 28.6193 23.9284L22.2222 30.3255ZM17.7778 30.3255L11.3807 23.9284C10.6187 23.1664 9.58524 22.7383 8.50762 22.7383C6.26359 22.7383 4.44444 24.5575 4.44444 26.8015V28.4845L10.8415 34.8816C11.6035 35.6436 12.637 36.0717 13.7146 36.0717C15.9586 36.0717 17.7778 34.2525 17.7778 32.0085V30.3255ZM17.7778 9.02373V10.7067L11.3807 17.1038C10.6187 17.8658 9.58524 18.2939 8.50762 18.2939C6.26359 18.2939 4.44444 16.4747 4.44444 14.2307V12.5477L10.8415 6.15063C11.6035 5.38864 12.637 4.96056 13.7146 4.96056C15.9586 4.96056 17.7778 6.7797 17.7778 9.02373ZM28.6193 17.1038L22.2222 10.7067V9.02373C22.2222 6.7797 24.0414 4.96056 26.2854 4.96056C27.363 4.96056 28.3965 5.38864 29.1585 6.15063L35.5556 12.5477V14.2307C35.5556 16.4747 33.7364 18.2939 31.4924 18.2939C30.4148 18.2939 29.3813 17.8658 28.6193 17.1038Z" fill="#F25C54"/>
</g>
<path d="M54.3176 29V12.2H65.8016V15.296H57.8696V18.896H64.5896V21.764H57.8696V25.868H65.8976V29H54.3176ZM67.1359 29.024L71.5039 22.988L67.3639 16.88H71.7919L73.9399 20.564L76.0279 16.88H80.3479L76.3279 22.916L80.6599 29H76.1719L73.8199 25.304L71.4319 28.964L67.1359 29.024ZM87.4288 29.36C86.1328 29.36 85.1088 28.996 84.3568 28.268C83.6128 27.532 83.2408 26.424 83.2408 24.944V13.388H86.7448V16.88H89.7568V19.688H86.7448V24.308C86.7448 25.02 86.8928 25.52 87.1888 25.808C87.4848 26.096 87.8808 26.24 88.3768 26.24C88.6328 26.24 88.8808 26.212 89.1208 26.156C89.3688 26.092 89.5968 26.004 89.8048 25.892L90.2968 28.652C89.9368 28.852 89.5048 29.02 89.0008 29.156C88.5048 29.292 87.9808 29.36 87.4288 29.36ZM80.7808 19.688V16.88H83.5888V19.688H80.7808ZM97.9071 29.36C96.5871 29.36 95.4271 29.092 94.4271 28.556C93.4271 28.02 92.6471 27.272 92.0871 26.312C91.5271 25.352 91.2471 24.228 91.2471 22.94C91.2471 22.004 91.4071 21.144 91.7271 20.36C92.0551 19.576 92.5111 18.9 93.0951 18.332C93.6871 17.756 94.3791 17.312 95.1711 17C95.9711 16.68 96.8471 16.52 97.7991 16.52C98.8471 16.52 99.7751 16.704 100.583 17.072C101.399 17.44 102.075 17.956 102.611 18.62C103.147 19.276 103.519 20.048 103.727 20.936C103.943 21.824 103.963 22.788 103.787 23.828H94.4991C94.4991 24.388 94.6431 24.876 94.9311 25.292C95.2271 25.708 95.6391 26.036 96.1671 26.276C96.7031 26.508 97.3271 26.624 98.0391 26.624C98.7431 26.624 99.4151 26.528 100.055 26.336C100.695 26.144 101.299 25.852 101.867 25.46L103.031 27.86C102.647 28.156 102.167 28.42 101.591 28.652C101.015 28.876 100.403 29.048 99.7551 29.168C99.1151 29.296 98.4991 29.36 97.9071 29.36ZM94.7031 21.416H100.427C100.403 20.704 100.151 20.14 99.6711 19.724C99.1991 19.308 98.5471 19.1 97.7151 19.1C96.8831 19.1 96.1911 19.308 95.6391 19.724C95.0951 20.14 94.7831 20.704 94.7031 21.416ZM105.829 29V16.88H109.333V18.248C109.797 17.64 110.345 17.2 110.977 16.928C111.617 16.656 112.285 16.52 112.981 16.52C114.109 16.52 115.037 16.744 115.765 17.192C116.501 17.632 117.045 18.204 117.397 18.908C117.757 19.612 117.937 20.352 117.937 21.128V29H114.433V22.22C114.433 21.452 114.217 20.84 113.785 20.384C113.361 19.928 112.745 19.7 111.937 19.7C111.425 19.7 110.973 19.816 110.581 20.048C110.189 20.272 109.881 20.588 109.657 20.996C109.441 21.404 109.333 21.876 109.333 22.412V29H105.829ZM125.119 29.348C124.039 29.348 123.043 29.208 122.131 28.928C121.219 28.64 120.439 28.248 119.791 27.752L120.931 25.304C121.563 25.736 122.247 26.076 122.983 26.324C123.719 26.564 124.427 26.684 125.107 26.684C125.779 26.684 126.295 26.584 126.655 26.384C127.023 26.176 127.207 25.88 127.207 25.496C127.207 25.152 127.043 24.9 126.715 24.74C126.395 24.572 125.771 24.392 124.843 24.2C123.243 23.912 122.075 23.46 121.339 22.844C120.603 22.22 120.235 21.364 120.235 20.276C120.235 19.508 120.447 18.832 120.871 18.248C121.303 17.664 121.895 17.212 122.647 16.892C123.399 16.564 124.263 16.4 125.239 16.4C126.199 16.4 127.103 16.532 127.951 16.796C128.807 17.052 129.539 17.412 130.147 17.876L129.043 20.336C128.723 20.08 128.355 19.856 127.939 19.664C127.531 19.472 127.099 19.324 126.643 19.22C126.195 19.108 125.755 19.052 125.323 19.052C124.739 19.052 124.267 19.152 123.907 19.352C123.547 19.544 123.367 19.816 123.367 20.168C123.367 20.52 123.531 20.78 123.859 20.948C124.187 21.116 124.799 21.3 125.695 21.5C127.367 21.852 128.555 22.32 129.259 22.904C129.971 23.48 130.327 24.292 130.327 25.34C130.327 26.148 130.107 26.852 129.667 27.452C129.235 28.052 128.627 28.52 127.843 28.856C127.067 29.184 126.159 29.348 125.119 29.348ZM132.532 29V16.88H136.036V29H132.532ZM134.284 14.96C133.7 14.96 133.196 14.78 132.772 14.42C132.348 14.052 132.136 13.564 132.136 12.956C132.136 12.34 132.348 11.852 132.772 11.492C133.196 11.124 133.7 10.94 134.284 10.94C134.868 10.94 135.372 11.124 135.796 11.492C136.22 11.852 136.432 12.34 136.432 12.956C136.432 13.564 136.22 14.052 135.796 14.42C135.372 14.78 134.868 14.96 134.284 14.96ZM144.646 29.36C143.342 29.36 142.186 29.068 141.178 28.484C140.17 27.9 139.378 27.124 138.802 26.156C138.234 25.18 137.95 24.108 137.95 22.94C137.95 22.084 138.114 21.272 138.442 20.504C138.77 19.728 139.234 19.044 139.834 18.452C140.434 17.852 141.142 17.38 141.958 17.036C142.774 16.692 143.67 16.52 144.646 16.52C145.95 16.52 147.102 16.812 148.102 17.396C149.11 17.98 149.898 18.76 150.466 19.736C151.042 20.704 151.33 21.772 151.33 22.94C151.33 23.788 151.166 24.6 150.838 25.376C150.51 26.152 150.046 26.84 149.446 27.44C148.854 28.032 148.15 28.5 147.334 28.844C146.518 29.188 145.622 29.36 144.646 29.36ZM144.646 26.324C145.262 26.324 145.814 26.188 146.302 25.916C146.79 25.636 147.174 25.244 147.454 24.74C147.734 24.228 147.874 23.628 147.874 22.94C147.874 22.244 147.734 21.644 147.454 21.14C147.182 20.636 146.802 20.248 146.314 19.976C145.826 19.696 145.27 19.556 144.646 19.556C144.022 19.556 143.462 19.696 142.966 19.976C142.478 20.248 142.094 20.636 141.814 21.14C141.542 21.644 141.406 22.244 141.406 22.94C141.406 23.636 141.546 24.236 141.826 24.74C142.106 25.244 142.49 25.636 142.978 25.916C143.466 26.188 144.022 26.324 144.646 26.324ZM153.235 29V16.88H156.739V18.248C157.203 17.64 157.751 17.2 158.383 16.928C159.023 16.656 159.691 16.52 160.387 16.52C161.515 16.52 162.443 16.744 163.171 17.192C163.907 17.632 164.451 18.204 164.803 18.908C165.163 19.612 165.343 20.352 165.343 21.128V29H161.839V22.22C161.839 21.452 161.623 20.84 161.191 20.384C160.767 19.928 160.151 19.7 159.343 19.7C158.831 19.7 158.379 19.816 157.987 20.048C157.595 20.272 157.287 20.588 157.063 20.996C156.847 21.404 156.739 21.876 156.739 22.412V29H153.235ZM172.526 29.348C171.446 29.348 170.45 29.208 169.538 28.928C168.626 28.64 167.846 28.248 167.198 27.752L168.338 25.304C168.97 25.736 169.654 26.076 170.39 26.324C171.126 26.564 171.834 26.684 172.514 26.684C173.186 26.684 173.702 26.584 174.062 26.384C174.43 26.176 174.614 25.88 174.614 25.496C174.614 25.152 174.45 24.9 174.122 24.74C173.802 24.572 173.178 24.392 172.25 24.2C170.65 23.912 169.482 23.46 168.746 22.844C168.01 22.22 167.642 21.364 167.642 20.276C167.642 19.508 167.854 18.832 168.278 18.248C168.71 17.664 169.302 17.212 170.054 16.892C170.806 16.564 171.67 16.4 172.646 16.4C173.606 16.4 174.51 16.532 175.358 16.796C176.214 17.052 176.946 17.412 177.554 17.876L176.45 20.336C176.13 20.08 175.762 19.856 175.346 19.664C174.938 19.472 174.506 19.324 174.05 19.22C173.602 19.108 173.162 19.052 172.73 19.052C172.146 19.052 171.674 19.152 171.314 19.352C170.954 19.544 170.774 19.816 170.774 20.168C170.774 20.52 170.938 20.78 171.266 20.948C171.594 21.116 172.206 21.3 173.102 21.5C174.774 21.852 175.962 22.32 176.666 22.904C177.378 23.48 177.734 24.292 177.734 25.34C177.734 26.148 177.514 26.852 177.074 27.452C176.642 28.052 176.034 28.52 175.25 28.856C174.474 29.184 173.566 29.348 172.526 29.348Z" fill="white"/>
<defs>
<clipPath id="clip0_24_2633">
<rect width="40" height="41" fill="white"/>
</clipPath>
</defs>
</svg>
